<svg width="1074" height="600" viewBox="0 0 1074 600" fill="none" xmlns="http://www.w3.org/2000/svg">
<path d="M1063 477.953L954.727 58.6756C950.272 41.7441 931.488 41.2985 924.429 58.6756C915.161 81.4886 810.364 292.152 762.688 397.752C749.814 426.268 741.437 425.377 728.825 397.752C713.854 364.958 625.008 177.79 580.452 84.5184C563.074 64.9135 553.881 52.4376 521.637 52.4376C449.009 52.4376 295.883 52.4376 203.502 52.4376C170.085 52.4376 141.658 65.7155 115.28 92.0931" stroke="#FE8EA0" stroke-width="21.3872" stroke-linecap="round"/>
<path d="M202.611 46.6453C198.601 33.2783 171.994 11 143.796 11C116.616 11 76.5159 38.6251 63.1489 74.716C48.4617 114.371 34.6326 141.757 15.0279 147.789C-2.34922 153.136 37.3062 180.315 118.399 158.482C199.91 136.537 205.197 74.2704 202.611 58.6756" stroke="#FE8EA0" stroke-width="21.3872" stroke-linecap="round"/>
<path d="M470.842 270.765H143.797C124.192 270.765 115.28 281.102 115.28 301.064C115.28 321.025 115.28 408.594 115.28 449.883C115.28 470.379 123.3 478.399 143.797 478.399C170.887 478.399 435.494 478.399 564.411 478.399C592.036 478.399 625.008 482.855 655.307 513.153M567.085 471.716C575.105 461.616 589.808 442.701 617.879 436.516C653.079 428.76 685.294 446.318 695.853 470.824C719.468 525.629 719.914 531.421 744.866 555.928C782.739 579.988 690.506 602.267 634.811 578.206C599.849 563.102 566.639 543.452 564.411 486.419" stroke="#AACFC7" stroke-width="21.3872" stroke-linecap="round"/>
</svg>
